<svg width="215" height="215" viewBox="0 0 215 215" fill="none" xmlns="http://www.w3.org/2000/svg">
<path fill-rule="evenodd" clip-rule="evenodd" d="M200.015 163.38C203.186 161.586 204.269 157.61 202.44 154.5C200.611 151.393 196.559 150.326 193.388 152.12L106.853 201.134L20.6351 152.303C17.4685 150.508 13.4161 151.571 11.5837 154.682C9.75483 157.793 10.8417 161.767 14.0095 163.562L103.287 214.125C104.062 214.565 104.917 214.846 105.802 214.952C106.687 215.058 107.583 214.987 108.44 214.743C109.248 214.619 110.028 214.349 110.74 213.946L200.015 163.38Z" fill="black"/>
<path fill-rule="evenodd" clip-rule="evenodd" d="M208.925 111.539C209.379 108.796 208.095 105.938 205.488 104.469L111.107 51.2711C110.364 50.8524 109.553 50.5708 108.711 50.4398C107.806 50.1815 106.859 50.1056 105.924 50.2163C104.989 50.327 104.086 50.6222 103.265 51.0848L8.87845 104.284C6.13403 105.832 4.85695 108.922 5.53354 111.794C5.23627 114.16 6.16019 116.636 8.9106 118.194L103.291 171.649C104.112 172.114 105.017 172.41 105.952 172.521C106.888 172.633 107.836 172.557 108.742 172.299C109.595 172.17 110.417 171.886 111.169 171.46L205.554 118.001C208.328 116.429 209.246 113.924 208.925 111.539ZM189.44 111.256L107.019 64.7992L24.6447 111.232L107.066 157.913L189.44 111.256Z" fill="black"/>
<path fill-rule="evenodd" clip-rule="evenodd" d="M210.355 71.2839C213.877 69.2911 215.085 64.8768 213.048 61.4213C211.017 57.9707 206.518 56.7869 202.996 58.7793L106.892 113.212L11.1452 58.9823C7.62308 56.9852 3.12354 58.1701 1.09257 61.6244C-0.943157 65.0739 0.262583 69.4934 3.78587 71.4855L102.933 127.64C103.795 128.128 104.745 128.439 105.728 128.556C106.71 128.673 107.706 128.594 108.658 128.322C109.554 128.188 110.419 127.889 111.209 127.442L210.355 71.2839Z" fill="black"/>
<path d="M18.3913 65.0341L106.705 10.886L195.018 65.0294L106.704 115.571L18.3913 65.0341Z" fill="black"/>
<path fill-rule="evenodd" clip-rule="evenodd" d="M210.238 57.044C213.767 59.0327 214.989 63.4437 212.97 66.8981C210.944 70.35 206.445 71.5372 202.915 69.5485L106.797 15.3716L11.028 69.3536C7.49873 71.3424 2.9992 70.1538 0.975357 66.7033C-1.04611 63.249 0.176286 58.838 3.70195 56.8493L102.852 0.965652C103.714 0.479231 104.664 0.16878 105.646 0.0521447C106.628 -0.0644902 107.623 0.0149918 108.574 0.286021C109.458 0.424026 110.311 0.720149 111.091 1.16034L210.238 57.044Z" fill="black"/>
</svg>
